<svg version="1.1"
  xmlns="http://www.w3.org/2000/svg"
  xmlns:xlink="http://www.w3.org/1999/xlink" 
  viewBox="0 0 800 800">
<title>Gridiron Guesser</title>
  <defs>
    <style>
      <![CDATA[
        .sprite,
        .sprite:target ~ #default {
            display: none;
        }
        .sprite:target, #default {
            display: inline;
        }
      ]]>
    </style>

    <g id="logo" stroke="none">
      <path d="M16.86,637.17c5.2,5.42,11.29,9.73,18.28,12.92,6.99,3.19,14.51,4.78,22.56,4.78,9.17,0,17.81-1.57,25.92-4.7,8.11-3.13,15.57-7.49,22.39-13.08v-52.16h-46.29v23.99h15.6v9.18c-1.3.79-2.66,1.54-4.11,2.22-4.08,1.9-8.47,2.85-13.17,2.85-3.58,0-6.74-.67-9.48-2.01-2.74-1.34-5.09-3.27-7.04-5.79-1.96-2.52-3.5-5.53-4.61-9.06-1.12-3.52-1.68-7.35-1.68-11.49,0-3.13.28-6.01.84-8.64.56-2.63,1.37-5.03,2.43-7.21,1.06-2.18,2.32-4.14,3.77-5.87,1.45-1.73,3.1-3.19,4.95-4.36s3.83-2.07,5.95-2.68c2.12-.61,4.3-.92,6.54-.92,1.9,0,3.77.2,5.62.59,1.84.39,3.66.98,5.45,1.76,1.79.78,3.49,1.73,5.12,2.85,1.62,1.12,3.21,2.41,4.78,3.86l21.97-22.81c-6.04-5.7-12.83-10.01-20.38-12.91-7.55-2.91-15.12-4.36-22.73-4.36-5.03,0-9.98.59-14.84,1.76s-9.48,2.91-13.84,5.2c-4.36,2.29-8.44,5.17-12.24,8.64-3.8,3.47-7.07,7.44-9.81,11.91-2.74,4.47-4.89,9.45-6.46,14.93-1.57,5.48-2.35,11.46-2.35,17.95,0,8.39,1.51,16.24,4.53,23.57,3.02,7.33,7.13,13.7,12.33,19.12Z"/>
      <path d="M155.32,618.47h6.88c1.23,0,2.37-.06,3.44-.17.44-.05.91-.11,1.38-.17l19.17,35.06h37.07l-23.15-39.34c.78-.28,1.54-.58,2.27-.92,4.08-1.9,7.46-4.53,10.15-7.88s4.72-7.38,6.12-12.08c1.4-4.7,2.1-9.95,2.1-15.77,0-6.15-.65-11.41-1.93-15.77-1.29-4.36-3.08-8.08-5.37-11.15-2.29-3.07-5.03-5.56-8.22-7.46-3.19-1.9-6.65-3.38-10.4-4.45-3.75-1.06-7.72-1.76-11.91-2.1s-8.36-.5-12.5-.5h-48.98v117.41h33.88v-34.72ZM171.92,565.47c1.9,0,3.72.11,5.45.34,1.73.23,3.3.84,4.7,1.85,1.4,1.01,2.52,2.35,3.36,4.03.84,1.68,1.26,4.03,1.26,7.04,0,2.8-.34,5.09-1.01,6.88-.67,1.79-1.68,3.19-3.02,4.19-1.34,1.01-2.91,1.68-4.7,2.01-1.79.34-3.8.5-6.04.5h-16.61v-26.84h16.61Z"/>
      <rect x="233.82" y="535.78" width="33.88" height="117.41"/>
      <path d="M371.77,636.34c3.52-3.52,6.54-7.46,9.06-11.82,2.52-4.36,4.47-9.06,5.87-14.09,1.4-5.03,2.1-10.34,2.1-15.93,0-8.39-1.51-16.16-4.53-23.32-3.02-7.15-7.16-13.36-12.41-18.62-5.26-5.25-11.41-9.36-18.45-12.33-7.04-2.96-14.54-4.44-22.48-4.44h-47.13v117.41h47.13c5.37,0,10.51-.67,15.43-2.01,4.92-1.34,9.5-3.27,13.75-5.79,4.25-2.52,8.13-5.53,11.66-9.06ZM353.32,602.79c-.62,2.52-1.45,4.87-2.52,7.05-1.06,2.18-2.35,4.08-3.86,5.7-1.51,1.62-3.22,2.99-5.12,4.11-1.9,1.12-3.92,1.99-6.04,2.6-2.13.62-4.36.92-6.71.92h-11.41v-57.36h11.41c3.13,0,6.18.56,9.14,1.68,2.96,1.12,5.62,2.83,7.97,5.12,2.35,2.29,4.28,5.26,5.79,8.89,1.51,3.63,2.26,7.97,2.26,13,0,3.02-.31,5.79-.92,8.3Z"/>
      <rect x="402.89" y="535.78" width="33.88" height="117.41"/>
      <path d="M486.75,618.47h6.88c1.23,0,2.37-.06,3.44-.17.44-.05.91-.11,1.38-.17l19.17,35.06h37.07l-23.15-39.34c.78-.28,1.54-.58,2.27-.92,4.08-1.9,7.46-4.53,10.15-7.88s4.72-7.38,6.12-12.08c1.4-4.7,2.1-9.95,2.1-15.77,0-6.15-.65-11.41-1.93-15.77-1.29-4.36-3.08-8.08-5.37-11.15-2.29-3.07-5.03-5.56-8.22-7.46-3.19-1.9-6.65-3.38-10.4-4.45-3.75-1.06-7.72-1.76-11.91-2.1s-8.36-.5-12.5-.5h-48.98v117.41h33.88v-34.72ZM503.36,565.47c1.9,0,3.72.11,5.45.34,1.73.23,3.3.84,4.7,1.85,1.4,1.01,2.52,2.35,3.36,4.03.84,1.68,1.26,4.03,1.26,7.04,0,2.8-.34,5.09-1.01,6.88-.67,1.79-1.68,3.19-3.02,4.19-1.34,1.01-2.91,1.68-4.7,2.01-1.79.34-3.8.5-6.04.5h-16.61v-26.84h16.61Z"/>
      <path d="M620.93,654.87c5.37,0,10.45-.73,15.26-2.18,4.81-1.45,9.36-3.49,13.67-6.12,4.3-2.63,8.22-5.76,11.74-9.39,3.52-3.63,6.54-7.69,9.06-12.16,2.52-4.47,4.47-9.28,5.87-14.42,1.4-5.14,2.1-10.51,2.1-16.1,0-8.39-1.54-16.24-4.61-23.57-3.08-7.32-7.24-13.7-12.5-19.12-5.26-5.42-11.35-9.73-18.28-12.92-6.93-3.19-14.37-4.78-22.31-4.78-5.26,0-10.34.73-15.26,2.18-4.92,1.45-9.51,3.5-13.75,6.12-4.25,2.63-8.13,5.76-11.66,9.39-3.52,3.63-6.52,7.69-8.97,12.16-2.46,4.47-4.39,9.28-5.79,14.42-1.4,5.15-2.1,10.51-2.1,16.1,0,8.39,1.51,16.24,4.53,23.57,3.02,7.33,7.13,13.7,12.33,19.12,5.2,5.42,11.29,9.73,18.28,12.92,6.99,3.19,14.45,4.78,22.39,4.78ZM599.38,587.02c.5-2.4,1.17-4.7,2.01-6.88s1.95-4.14,3.35-5.87c1.4-1.73,2.94-3.24,4.61-4.53,1.68-1.28,3.49-2.26,5.45-2.94,1.95-.67,4.11-1.01,6.46-1.01,3.24,0,6.23.76,8.97,2.26,2.74,1.51,5.09,3.58,7.04,6.21,1.95,2.63,3.46,5.68,4.53,9.14,1.06,3.47,1.59,7.16,1.59,11.07,0,2.57-.25,5.09-.76,7.55-.5,2.46-1.17,4.75-2.01,6.88-.84,2.13-1.9,4.08-3.19,5.87-1.29,1.79-2.8,3.3-4.53,4.53-1.73,1.23-3.58,2.18-5.54,2.85-1.96.67-4.17,1.01-6.63,1.01-3.24,0-6.23-.75-8.97-2.26-2.74-1.51-5.09-3.58-7.05-6.21-1.96-2.63-3.47-5.67-4.53-9.14-1.06-3.47-1.59-7.16-1.59-11.07,0-2.57.25-5.06.75-7.46Z"/>
      <polygon points="725.26 593.32 761.16 653.19 795.54 653.19 795.54 535.78 762.67 535.78 762.67 595.65 726.77 535.78 692.05 535.78 692.05 653.19 725.26 653.19 725.26 593.32"/>
      <path d="M63.56,751.71h16.4v9.66c-1.37.83-2.79,1.62-4.32,2.34-4.29,2-8.91,3-13.85,3-3.76,0-7.09-.71-9.97-2.12-2.88-1.41-5.35-3.44-7.41-6.09-2.06-2.65-3.68-5.82-4.85-9.53-1.18-3.7-1.76-7.73-1.76-12.08,0-3.29.29-6.32.88-9.08.59-2.76,1.44-5.29,2.56-7.58,1.12-2.29,2.44-4.35,3.97-6.17,1.53-1.82,3.26-3.35,5.2-4.59,1.94-1.23,4.03-2.17,6.26-2.82,2.23-.64,4.53-.97,6.88-.97,2,0,3.97.21,5.91.62,1.94.41,3.85,1.03,5.73,1.85,1.88.82,3.67,1.82,5.38,3,1.7,1.18,3.38,2.53,5.03,4.06l23.11-23.99c-6.35-6-13.49-10.52-21.43-13.58-7.94-3.06-15.91-4.59-23.9-4.59-5.29,0-10.5.62-15.61,1.85-5.11,1.24-9.97,3.06-14.55,5.47-4.59,2.41-8.88,5.44-12.88,9.08-4,3.65-7.44,7.82-10.32,12.52-2.88,4.71-5.15,9.94-6.79,15.7-1.65,5.76-2.47,12.06-2.47,18.87,0,8.82,1.59,17.08,4.76,24.78,3.18,7.7,7.5,14.41,12.96,20.11,5.47,5.7,11.88,10.23,19.23,13.58,7.35,3.35,15.26,5.03,23.72,5.03,9.64,0,18.73-1.65,27.25-4.94,8.53-3.29,16.37-7.88,23.55-13.76v-54.86h-48.68v25.22Z"/>
      <path d="M197.97,743.59c0,3.76-.35,7.14-1.06,10.14-.71,3-1.76,5.53-3.18,7.59-1.41,2.06-3.2,3.62-5.38,4.67-2.18,1.06-4.62,1.59-7.32,1.59-1.53,0-2.94-.15-4.23-.44-1.3-.29-2.47-.73-3.53-1.32-1.06-.59-2.03-1.32-2.91-2.21s-1.74-1.97-2.56-3.26c-1.3-1.88-2.24-4.23-2.82-7.06-.59-2.82-.88-6.06-.88-9.7v-68.79h-35.63v68.79c0,7.88.85,14.82,2.56,20.81,1.7,6,4.15,11.23,7.32,15.7,2.12,3.41,4.64,6.38,7.58,8.91,2.94,2.53,6.2,4.59,9.79,6.17,3.59,1.59,7.52,2.79,11.82,3.62,4.29.82,8.79,1.24,13.49,1.24,8,0,15.26-1.15,21.79-3.44s12.05-5.76,16.58-10.41c4.53-4.64,8-10.5,10.41-17.55,2.41-7.06,3.62-15.4,3.62-25.05v-68.79h-35.45v68.79Z"/>
      <polygon points="285.46 751 340.67 751 340.67 720.48 285.46 720.48 285.46 706.55 344.55 706.55 344.55 674.8 249.83 674.8 249.83 798.27 345.43 798.27 345.43 766.52 285.46 766.52 285.46 751"/>
      <path d="M446.33,732.13c-3.88-2.94-8.38-5.38-13.49-7.32-5.12-1.94-10.5-3.79-16.14-5.56-4.47-1.29-8.03-2.38-10.67-3.26-2.65-.88-4.7-1.7-6.17-2.47-1.47-.76-2.47-1.53-3-2.29-.53-.76-.79-1.62-.79-2.56,0-.82.18-1.59.53-2.29s.94-1.32,1.76-1.85c.82-.53,1.82-.94,3-1.24,1.17-.29,2.65-.44,4.41-.44,2.12,0,4.59.26,7.41.79,2.82.53,5.79,1.3,8.91,2.29,3.11,1,6.38,2.2,9.79,3.62,3.41,1.41,6.76,2.94,10.05,4.59l14.82-27.16c-6.82-4.47-14.49-7.91-23.02-10.32-8.53-2.41-17.37-3.62-26.55-3.62-6.7,0-13.03.79-18.96,2.38-5.94,1.59-11.09,4.09-15.44,7.5-4.35,3.41-7.76,7.65-10.23,12.7-2.47,5.06-3.7,11.17-3.7,18.35,0,6,1.17,11.06,3.53,15.17,2.35,4.12,5.56,7.58,9.61,10.41,4.06,2.82,8.76,5.18,14.11,7.06,5.35,1.88,11.08,3.59,17.2,5.11,4.35,1.3,7.82,2.38,10.41,3.26,2.59.88,4.56,1.76,5.91,2.65,1.35.88,2.23,1.74,2.65,2.56.41.82.62,1.76.62,2.82,0,1.18-.26,2.2-.79,3.09-.53.88-1.26,1.59-2.2,2.12-.94.53-2.03.91-3.26,1.15-1.24.24-2.62.35-4.15.35-2.82,0-5.94-.27-9.35-.79-3.41-.53-6.97-1.35-10.67-2.47-3.7-1.12-7.5-2.53-11.38-4.23-3.88-1.7-7.58-3.67-11.11-5.91l-16.05,26.28c4,2.82,8.2,5.32,12.61,7.5,4.41,2.18,9,4,13.76,5.47,4.76,1.47,9.7,2.59,14.82,3.35s10.32,1.15,15.61,1.15c7.52,0,14.26-.91,20.2-2.73,5.94-1.82,11-4.5,15.17-8.03,4.17-3.53,7.35-7.85,9.53-12.96,2.18-5.12,3.26-11.02,3.26-17.73,0-6.23-1.12-11.46-3.35-15.7-2.24-4.23-5.29-7.82-9.17-10.76Z"/>
      <path d="M559.58,732.13c-3.88-2.94-8.38-5.38-13.49-7.32-5.12-1.94-10.5-3.79-16.14-5.56-4.47-1.29-8.03-2.38-10.67-3.26-2.65-.88-4.7-1.7-6.17-2.47-1.47-.76-2.47-1.53-3-2.29-.53-.76-.79-1.62-.79-2.56,0-.82.18-1.59.53-2.29s.94-1.32,1.76-1.85c.82-.53,1.82-.94,3-1.24,1.17-.29,2.65-.44,4.41-.44,2.12,0,4.59.26,7.41.79,2.82.53,5.79,1.3,8.91,2.29,3.11,1,6.38,2.2,9.79,3.62,3.41,1.41,6.76,2.94,10.05,4.59l14.82-27.16c-6.82-4.47-14.49-7.91-23.02-10.32-8.53-2.41-17.37-3.62-26.55-3.62-6.7,0-13.03.79-18.96,2.38-5.94,1.59-11.09,4.09-15.44,7.5-4.35,3.41-7.76,7.65-10.23,12.7-2.47,5.06-3.7,11.17-3.7,18.35,0,6,1.17,11.06,3.53,15.17,2.35,4.12,5.56,7.58,9.61,10.41,4.06,2.82,8.76,5.18,14.11,7.06,5.35,1.88,11.08,3.59,17.2,5.11,4.35,1.3,7.82,2.38,10.41,3.26,2.59.88,4.56,1.76,5.91,2.65,1.35.88,2.23,1.74,2.65,2.56.41.82.62,1.76.62,2.82,0,1.18-.26,2.2-.79,3.09-.53.88-1.26,1.59-2.2,2.12-.94.53-2.03.91-3.26,1.15-1.24.24-2.62.35-4.15.35-2.82,0-5.94-.27-9.35-.79-3.41-.53-6.97-1.35-10.67-2.47-3.7-1.12-7.5-2.53-11.38-4.23-3.88-1.7-7.58-3.67-11.11-5.91l-16.05,26.28c4,2.82,8.2,5.32,12.61,7.5,4.41,2.18,9,4,13.76,5.47,4.76,1.47,9.7,2.59,14.82,3.35s10.32,1.15,15.61,1.15c7.52,0,14.26-.91,20.2-2.73,5.94-1.82,11-4.5,15.17-8.03,4.17-3.53,7.35-7.85,9.53-12.96,2.18-5.12,3.26-11.02,3.26-17.73,0-6.23-1.12-11.46-3.35-15.7-2.24-4.23-5.29-7.82-9.17-10.76Z"/>
      <polygon points="620.25 751 675.47 751 675.47 720.48 620.25 720.48 620.25 706.55 679.35 706.55 679.35 674.8 584.62 674.8 584.62 798.27 680.23 798.27 680.23 766.52 620.25 766.52 620.25 751"/>
      <path d="M800,798.27l-24.34-41.37c.82-.29,1.62-.61,2.38-.96,4.29-2,7.85-4.76,10.67-8.29,2.82-3.53,4.97-7.76,6.44-12.7,1.47-4.94,2.2-10.47,2.2-16.58,0-6.47-.68-11.99-2.03-16.58-1.35-4.59-3.24-8.49-5.64-11.73-2.41-3.23-5.29-5.85-8.64-7.85-3.35-2-7-3.56-10.94-4.67-3.94-1.12-8.11-1.85-12.52-2.2-4.41-.35-8.79-.53-13.14-.53h-51.51v123.48h35.63v-36.51h7.23c1.29,0,2.5-.06,3.62-.18.47-.05.96-.11,1.45-.18l20.15,36.87h38.98ZM757.31,731.6c-1.41,1.06-3.06,1.76-4.94,2.12-1.88.35-4,.53-6.35.53h-17.46v-28.22h17.46c2,0,3.91.12,5.73.35,1.82.24,3.47.88,4.94,1.94,1.47,1.06,2.65,2.47,3.53,4.23.88,1.76,1.32,4.23,1.32,7.41,0,2.94-.35,5.35-1.06,7.23-.71,1.88-1.76,3.35-3.18,4.41Z"/>
      <path d="M407.81,421.52c-3.04,2.24-6.16,4.38-9.33,6.4-52.03-31.85-77.6-92.35-71.82-152.78,61.33-6.61,123.49-4.72,184.34,5.67,0-13.64,0-27.28,0-40.92-74.24-15.36-150.84-15.36-225.08-.01.64,19.09-2.26,84.81,3.61,101.9,12.07,56.9,54,108.72,108.95,134.44,67.6-32.14,115.36-101.9,112.52-174.94-13.53-2.07-27.11-3.76-40.74-5.07,1.97,49.33-23.45,96.3-62.45,125.32Z"/>
      <path d="M367.53,314.76c26.67-.97,53.39-.69,80.03.86,1.09-4.84.9-16.09.89-21.21-34.15-2.29-68.47-2.23-102.61.18-1.83,41.97,19.05,82.2,51.33,107.45,21.18-16.61,37.45-39.59,45.55-65.37-7.56-.51-38.61-1.18-45.55-1.01,0,7.15,0,14.31,0,21.46,2.05-.01,11.13.03,12.98.06-3.82,5.88-8.18,11.4-12.98,16.5-15.34-16.11-25.81-36.78-29.63-58.92Z"/>
      <path d="M479.11,124.5c17.93-.45,30.53,19.77,22.44,35.64v.07s-11.88,26.17-11.88,26.17c-6.47-1.82-12.74-4.29-18.65-7.38-15.86-8.2-29.22-20.56-38.64-35.64h-.02c-5.26-8.43-9.35-17.76-11.84-27.47h-.02c-1.87-7.27-2.99-14.91-3.14-22.72t0-.04s-.02-.02,0-.04t0-.04c-.05-1.43-.05-2.86,0-4.29t0-.04s-.02-.02,0-.04t0-.04c0-.71.03-1.42.07-2.13,7.94-9.49,23.26-10.24,33.07-3.36h1.9c-16.31-25.25-38.66-59.96-53.66-83.19h-.04l-.27.43-.27-.43h-.04c-14.93,23.13-37.39,58.01-53.66,83.19h1.9c9.81-6.88,25.14-6.13,33.07,3.36.04.71.07,1.42.07,2.13t0,.04s.02.02,0,.04t0,.04c.05,1.43.05,2.86,0,4.29t0,.04s.02.02,0,.04t0,.04c-.15,7.81-1.27,15.45-3.14,22.72h-.02c-2.49,9.71-6.59,19.04-11.84,27.47h-.02c-9.41,15.08-22.78,27.44-38.64,35.64-5.91,3.09-12.18,5.56-18.65,7.38l-11.9-26.17v-.07c-8.07-15.87,4.52-36.08,22.45-35.64-23.72-8.4-63.38-22.41-87.15-30.83,13.45,32.65,40.55,89.05,54.84,121.54,44.88,3.16,89.97-20.6,112.98-58.27,23.01,37.66,68.1,61.43,112.98,58.27,14.28-32.47,41.39-88.9,54.84-121.54l-41,14.5c-5.6,1.98-39.79,14.07-46.16,16.33Z"/>
    </g>
  </defs>

  <g class="sprite" id="#000000" fill="#000000">
    <use x="0" y="0" xlink:href="#logo"/>
  </g>

  <g class="sprite" id="black" fill="#000000">
    <use x="0" y="0" xlink:href="#logo"/>
  </g>

  <g class="sprite" id="#ffffff" fill="#ffffff">
    <use x="0" y="0" xlink:href="#logo"/>
  </g>

  <g class="sprite" id="white" fill="#ffffff">
    <use x="0" y="0" xlink:href="#logo"/>
  </g>

  <g class="sprite" id="#F0F0F0" fill="#F0F0F0">
    <use x="0" y="0" xlink:href="#logo"/>
  </g>

  <g class="sprite" id="light" fill="#F0F0F0">
    <use x="0" y="0" xlink:href="#logo"/>
  </g>
  
  <g class="sprite" id="#F4C20E" fill="#F4C20E">
    <use x="0" y="0" xlink:href="#logo"/>
  </g>
  
  <g class="sprite" id="green" fill="#F4C20E">
    <use x="0" y="0" xlink:href="#logo"/>
  </g>
  
  <g class="sprite" id="#1561E8" fill="#1561E8">
    <use x="0" y="0" xlink:href="#logo"/>
  </g>
  
  <g class="sprite" id="blue" fill="#1561E8">
    <use x="0" y="0" xlink:href="#logo"/>
  </g>

  <g class="sprite" id="default" fill="#282828">
    <use x="0" y="0" xlink:href="#logo"/>
  </g>
</svg>