<svg version="1.1"
  xmlns="http://www.w3.org/2000/svg"
  xmlns:xlink="http://www.w3.org/1999/xlink" 
  viewBox="0 0 1000 419.6">
<title>Gridiron Guesser</title>
  <defs>
    <style>
      <![CDATA[
        .sprite,
        .sprite:target ~ #default {
            display: none;
        }
        .sprite:target, #default {
            display: inline;
        }
      ]]>
    </style>

  <g id="logo" stroke="none">
    <path d="M307.12,258.46c4.6,4.8,9.99,8.61,16.17,11.43,6.18,2.82,12.84,4.23,19.96,4.23,8.11,0,15.75-1.39,22.93-4.16,7.17-2.77,13.78-6.63,19.81-11.58v-46.15h-40.96v21.22h13.8v8.13c-1.15.7-2.35,1.37-3.64,1.97-3.61,1.68-7.49,2.52-11.65,2.52-3.17,0-5.96-.59-8.39-1.78-2.42-1.19-4.5-2.89-6.23-5.12-1.73-2.23-3.09-4.9-4.08-8.01-.99-3.12-1.48-6.5-1.48-10.17,0-2.77.25-5.32.74-7.64.49-2.32,1.21-4.45,2.15-6.38.94-1.93,2.05-3.66,3.34-5.19,1.29-1.53,2.75-2.82,4.38-3.86s3.39-1.83,5.27-2.37c1.88-.54,3.81-.82,5.79-.82,1.68,0,3.34.17,4.97.52,1.63.35,3.24.87,4.82,1.56,1.58.69,3.09,1.53,4.53,2.52,1.43.99,2.84,2.13,4.23,3.41l19.44-20.18c-5.34-5.05-11.35-8.85-18.03-11.43-6.68-2.57-13.38-3.86-20.11-3.86-4.45,0-8.83.52-13.13,1.56s-8.38,2.57-12.24,4.6c-3.86,2.03-7.47,4.58-10.83,7.64-3.36,3.07-6.26,6.58-8.68,10.54-2.43,3.96-4.33,8.36-5.71,13.21-1.39,4.85-2.08,10.14-2.08,15.88,0,7.42,1.34,14.37,4.01,20.85,2.67,6.48,6.31,12.12,10.91,16.92Z"/>
    <path d="M429.62,241.92h6.08c1.09,0,2.1-.05,3.04-.15.39-.04.8-.1,1.22-.15l16.96,31.02h32.8l-20.48-34.81c.69-.25,1.36-.51,2-.81,3.61-1.68,6.6-4.01,8.98-6.97s4.18-6.53,5.42-10.68c1.24-4.16,1.86-8.8,1.86-13.95,0-5.44-.57-10.09-1.71-13.95-1.14-3.86-2.72-7.15-4.75-9.87-2.03-2.72-4.45-4.92-7.27-6.6-2.82-1.68-5.89-2.99-9.2-3.93-3.32-.94-6.83-1.56-10.54-1.86s-7.4-.44-11.06-.44h-43.33v103.88h29.98v-30.72ZM444.31,195.02c1.68,0,3.29.1,4.82.3,1.53.2,2.92.74,4.15,1.63,1.24.89,2.23,2.08,2.97,3.56.74,1.48,1.11,3.56,1.11,6.23,0,2.47-.3,4.5-.89,6.08-.59,1.58-1.48,2.82-2.67,3.71-1.19.89-2.57,1.48-4.15,1.78-1.58.3-3.36.45-5.34.45h-14.69v-23.74h14.69Z"/>
    <rect x="499.07" y="168.76" width="29.98" height="103.88"/>
    <path d="M621.13,257.72c3.12-3.12,5.79-6.6,8.01-10.46,2.23-3.86,3.96-8.01,5.19-12.47,1.24-4.45,1.86-9.15,1.86-14.1,0-7.42-1.34-14.3-4.01-20.63-2.67-6.33-6.33-11.82-10.98-16.47-4.65-4.65-10.09-8.28-16.32-10.91-6.23-2.62-12.86-3.93-19.89-3.93h-41.7v103.88h41.7c4.75,0,9.3-.59,13.65-1.78,4.35-1.19,8.41-2.89,12.17-5.12,3.76-2.23,7.2-4.9,10.31-8.01ZM604.8,228.04c-.54,2.23-1.29,4.3-2.23,6.23-.94,1.93-2.08,3.61-3.41,5.05-1.34,1.43-2.85,2.65-4.53,3.64-1.68.99-3.46,1.76-5.34,2.3-1.88.54-3.86.82-5.94.82h-10.09v-50.75h10.09c2.77,0,5.47.5,8.09,1.48,2.62.99,4.97,2.5,7.05,4.53,2.08,2.03,3.78,4.65,5.12,7.87,1.34,3.22,2,7.05,2,11.5,0,2.67-.27,5.12-.82,7.35Z"/>
    <rect x="648.66" y="168.76" width="29.98" height="103.88"/>
    <path d="M722.85,241.92h6.08c1.09,0,2.1-.05,3.04-.15.39-.04.8-.1,1.22-.15l16.96,31.02h32.8l-20.48-34.81c.69-.25,1.36-.51,2-.81,3.61-1.68,6.6-4.01,8.98-6.97,2.37-2.97,4.18-6.53,5.42-10.68,1.24-4.16,1.86-8.8,1.86-13.95,0-5.44-.57-10.09-1.71-13.95-1.14-3.86-2.72-7.15-4.75-9.87-2.03-2.72-4.45-4.92-7.27-6.6-2.82-1.68-5.89-2.99-9.2-3.93-3.32-.94-6.83-1.56-10.54-1.86s-7.4-.44-11.06-.44h-43.33v103.88h29.98v-30.72ZM737.55,195.02c1.68,0,3.29.1,4.82.3,1.53.2,2.92.74,4.15,1.63,1.24.89,2.23,2.08,2.97,3.56.74,1.48,1.11,3.56,1.11,6.23,0,2.47-.3,4.5-.89,6.08-.59,1.58-1.48,2.82-2.67,3.71-1.19.89-2.57,1.48-4.15,1.78-1.58.3-3.36.45-5.34.45h-14.69v-23.74h14.69Z"/>
    <path d="M841.57,274.12c4.75,0,9.25-.64,13.5-1.93,4.25-1.28,8.28-3.09,12.09-5.42,3.81-2.32,7.27-5.09,10.39-8.31,3.12-3.21,5.79-6.8,8.01-10.76,2.23-3.96,3.96-8.21,5.19-12.76,1.24-4.55,1.86-9.3,1.86-14.25,0-7.42-1.36-14.37-4.08-20.85-2.72-6.48-6.41-12.12-11.06-16.92-4.65-4.8-10.04-8.61-16.18-11.43-6.14-2.82-12.71-4.23-19.74-4.23-4.65,0-9.15.64-13.5,1.93-4.35,1.29-8.41,3.09-12.17,5.42-3.76,2.33-7.2,5.1-10.31,8.31-3.12,3.22-5.76,6.8-7.94,10.76-2.18,3.96-3.88,8.21-5.12,12.76-1.24,4.55-1.86,9.3-1.86,14.25,0,7.42,1.34,14.37,4.01,20.85,2.67,6.48,6.31,12.12,10.91,16.92,4.6,4.8,9.99,8.61,16.17,11.43,6.18,2.82,12.79,4.23,19.81,4.23ZM822.5,214.09c.45-2.13,1.04-4.16,1.78-6.08s1.73-3.66,2.97-5.19c1.24-1.53,2.6-2.87,4.08-4.01,1.48-1.14,3.09-2,4.82-2.6,1.73-.59,3.64-.89,5.71-.89,2.87,0,5.51.67,7.94,2,2.42,1.34,4.5,3.17,6.23,5.49,1.73,2.33,3.07,5.02,4.01,8.09.94,3.07,1.41,6.33,1.41,9.79,0,2.28-.22,4.5-.67,6.68-.45,2.18-1.04,4.21-1.78,6.08-.74,1.88-1.68,3.61-2.82,5.19-1.14,1.58-2.47,2.92-4.01,4.01-1.53,1.09-3.17,1.93-4.9,2.52-1.73.59-3.69.89-5.86.89-2.87,0-5.52-.67-7.94-2-2.43-1.34-4.5-3.17-6.23-5.49-1.73-2.32-3.07-5.02-4.01-8.09-.94-3.07-1.41-6.33-1.41-9.79,0-2.28.22-4.48.67-6.6Z"/>
    <polygon points="933.88 219.67 965.63 272.64 996.06 272.64 996.06 168.76 966.97 168.76 966.97 221.72 935.21 168.76 904.49 168.76 904.49 272.64 933.88 272.64 933.88 219.67"/>
    <path d="M348.44,359.79h14.51v8.55c-1.21.74-2.47,1.44-3.82,2.07-3.8,1.77-7.88,2.65-12.25,2.65-3.33,0-6.27-.62-8.82-1.87-2.55-1.25-4.74-3.04-6.56-5.38-1.82-2.34-3.25-5.15-4.29-8.43-1.04-3.28-1.56-6.84-1.56-10.69,0-2.91.26-5.59.78-8.04.52-2.44,1.27-4.68,2.26-6.71.99-2.03,2.16-3.85,3.51-5.46,1.35-1.61,2.89-2.97,4.6-4.06,1.72-1.09,3.56-1.92,5.54-2.5,1.97-.57,4-.86,6.09-.86,1.77,0,3.51.18,5.23.55,1.72.37,3.41.91,5.07,1.64,1.66.73,3.25,1.61,4.76,2.65,1.51,1.04,2.99,2.24,4.45,3.59l20.44-21.22c-5.62-5.31-11.94-9.31-18.96-12.02-7.02-2.7-14.07-4.06-21.15-4.06-4.68,0-9.29.55-13.81,1.64-4.53,1.09-8.82,2.71-12.88,4.84-4.06,2.13-7.86,4.81-11.39,8.04-3.54,3.23-6.58,6.92-9.13,11.08-2.55,4.16-4.55,8.79-6.01,13.89-1.46,5.1-2.19,10.67-2.19,16.7,0,7.8,1.41,15.11,4.21,21.93,2.81,6.81,6.63,12.75,11.47,17.79,4.84,5.05,10.51,9.05,17.01,12.02,6.5,2.97,13.5,4.45,20.99,4.45,8.53,0,16.57-1.46,24.11-4.37,7.54-2.91,14.49-6.97,20.83-12.17v-48.54h-43.07v22.32Z"/>
    <path d="M467.36,352.62c0,3.33-.31,6.32-.94,8.97-.62,2.65-1.56,4.89-2.81,6.71-1.25,1.82-2.84,3.2-4.76,4.14-1.93.94-4.08,1.4-6.48,1.4-1.35,0-2.6-.13-3.75-.39-1.15-.26-2.19-.65-3.12-1.17-.94-.52-1.79-1.17-2.58-1.95s-1.54-1.74-2.26-2.89c-1.15-1.66-1.98-3.75-2.5-6.24-.52-2.5-.78-5.36-.78-8.58v-60.86h-31.52v60.86c0,6.97.75,13.11,2.26,18.41,1.51,5.31,3.67,9.94,6.48,13.89,1.87,3.02,4.11,5.65,6.71,7.88,2.6,2.24,5.49,4.06,8.66,5.46,3.17,1.4,6.66,2.47,10.46,3.2,3.8.73,7.78,1.09,11.94,1.09,7.07,0,13.5-1.01,19.27-3.04s10.66-5.1,14.67-9.21c4-4.11,7.07-9.29,9.21-15.53,2.13-6.24,3.2-13.63,3.2-22.16v-60.86h-31.37v60.86Z"/>
    <polygon points="544.76 359.17 593.61 359.17 593.61 332.17 544.76 332.17 544.76 319.84 597.04 319.84 597.04 291.75 513.24 291.75 513.24 401 597.82 401 597.82 372.9 544.76 372.9 544.76 359.17"/>
    <path d="M687.09,342.47c-3.43-2.6-7.41-4.76-11.94-6.48-4.53-1.72-9.29-3.36-14.28-4.92-3.96-1.14-7.1-2.11-9.44-2.89-2.34-.78-4.16-1.51-5.46-2.18-1.3-.68-2.18-1.35-2.65-2.03-.47-.68-.7-1.43-.7-2.26,0-.73.16-1.41.47-2.03s.83-1.17,1.56-1.64c.73-.47,1.61-.83,2.65-1.09,1.04-.26,2.34-.39,3.9-.39,1.87,0,4.06.23,6.55.7,2.5.47,5.12,1.15,7.88,2.03,2.76.89,5.64,1.95,8.66,3.2,3.02,1.25,5.98,2.6,8.9,4.06l13.11-24.03c-6.03-3.95-12.82-7-20.37-9.13-7.54-2.13-15.37-3.2-23.49-3.2-5.93,0-11.52.7-16.78,2.11-5.25,1.41-9.81,3.62-13.66,6.63-3.85,3.02-6.87,6.76-9.05,11.24-2.19,4.47-3.28,9.89-3.28,16.23,0,5.31,1.04,9.78,3.12,13.42,2.08,3.64,4.92,6.71,8.51,9.21,3.59,2.5,7.75,4.58,12.48,6.24,4.73,1.66,9.81,3.17,15.22,4.53,3.85,1.15,6.92,2.11,9.21,2.89,2.29.78,4.03,1.56,5.23,2.34,1.19.78,1.97,1.54,2.34,2.26.36.73.55,1.56.55,2.5,0,1.04-.23,1.95-.7,2.73-.47.78-1.12,1.41-1.95,1.87-.83.47-1.79.81-2.89,1.01-1.09.21-2.32.31-3.67.31-2.5,0-5.25-.23-8.27-.7-3.02-.47-6.16-1.19-9.44-2.19-3.28-.99-6.63-2.24-10.07-3.75-3.43-1.51-6.71-3.25-9.83-5.23l-14.2,23.25c3.54,2.5,7.26,4.71,11.16,6.63,3.9,1.93,7.96,3.54,12.17,4.84,4.21,1.3,8.58,2.29,13.11,2.97s9.13,1.01,13.81,1.01c6.66,0,12.61-.81,17.87-2.42,5.25-1.61,9.73-3.98,13.42-7.1,3.69-3.12,6.5-6.94,8.43-11.47,1.92-4.53,2.89-9.75,2.89-15.69,0-5.51-.99-10.14-2.97-13.89-1.98-3.75-4.68-6.92-8.12-9.52Z"/>
    <path d="M787.29,342.47c-3.43-2.6-7.41-4.76-11.94-6.48-4.53-1.72-9.29-3.36-14.28-4.92-3.96-1.14-7.1-2.11-9.44-2.89-2.34-.78-4.16-1.51-5.46-2.18-1.3-.68-2.18-1.35-2.65-2.03-.47-.68-.7-1.43-.7-2.26,0-.73.16-1.41.47-2.03s.83-1.17,1.56-1.64c.73-.47,1.61-.83,2.65-1.09,1.04-.26,2.34-.39,3.9-.39,1.87,0,4.06.23,6.55.7,2.5.47,5.12,1.15,7.88,2.03,2.76.89,5.64,1.95,8.66,3.2,3.02,1.25,5.98,2.6,8.9,4.06l13.11-24.03c-6.03-3.95-12.82-7-20.37-9.13-7.54-2.13-15.37-3.2-23.49-3.2-5.93,0-11.52.7-16.78,2.11-5.25,1.41-9.81,3.62-13.66,6.63-3.85,3.02-6.87,6.76-9.05,11.24-2.19,4.47-3.28,9.89-3.28,16.23,0,5.31,1.04,9.78,3.12,13.42,2.08,3.64,4.92,6.71,8.51,9.21,3.59,2.5,7.75,4.58,12.48,6.24,4.73,1.66,9.81,3.17,15.22,4.53,3.85,1.15,6.92,2.11,9.21,2.89,2.29.78,4.03,1.56,5.23,2.34,1.19.78,1.97,1.54,2.34,2.26.36.73.55,1.56.55,2.5,0,1.04-.23,1.95-.7,2.73-.47.78-1.12,1.41-1.95,1.87-.83.47-1.79.81-2.89,1.01-1.09.21-2.32.31-3.67.31-2.5,0-5.25-.23-8.27-.7-3.02-.47-6.16-1.19-9.44-2.19-3.28-.99-6.63-2.24-10.07-3.75-3.43-1.51-6.71-3.25-9.83-5.23l-14.2,23.25c3.54,2.5,7.26,4.71,11.16,6.63,3.9,1.93,7.96,3.54,12.17,4.84,4.21,1.3,8.58,2.29,13.11,2.97s9.13,1.01,13.81,1.01c6.66,0,12.61-.81,17.87-2.42,5.25-1.61,9.73-3.98,13.42-7.1,3.69-3.12,6.5-6.94,8.43-11.47,1.92-4.53,2.89-9.75,2.89-15.69,0-5.51-.99-10.14-2.97-13.89-1.98-3.75-4.68-6.92-8.12-9.52Z"/>
    <polygon points="840.97 359.17 889.82 359.17 889.82 332.17 840.97 332.17 840.97 319.84 893.25 319.84 893.25 291.75 809.45 291.75 809.45 401 894.03 401 894.03 372.9 840.97 372.9 840.97 359.17"/>
    <path d="M1000,401l-21.54-36.6c.72-.26,1.43-.54,2.11-.85,3.8-1.77,6.94-4.21,9.44-7.34s4.39-6.87,5.7-11.24c1.3-4.37,1.95-9.26,1.95-14.67,0-5.72-.6-10.61-1.79-14.67-1.2-4.06-2.86-7.51-4.99-10.38-2.13-2.86-4.68-5.17-7.65-6.94-2.97-1.77-6.19-3.15-9.68-4.14-3.49-.99-7.18-1.64-11.08-1.95-3.9-.31-7.78-.47-11.63-.47h-45.57v109.24h31.52v-32.31h6.4c1.14,0,2.21-.05,3.2-.16.41-.04.85-.1,1.29-.16l17.83,32.62h34.49ZM962.23,342c-1.25.94-2.71,1.56-4.37,1.87-1.67.31-3.54.47-5.62.47h-15.45v-24.97h15.45c1.77,0,3.46.1,5.07.31,1.61.21,3.07.78,4.37,1.72,1.3.94,2.34,2.19,3.12,3.75.78,1.56,1.17,3.75,1.17,6.55,0,2.6-.31,4.74-.94,6.4-.62,1.67-1.56,2.97-2.81,3.9Z"/>
    <path d="M156.77,372.93c-2.69,1.98-5.45,3.87-8.25,5.66-46.03-28.18-68.66-81.71-63.54-135.17,54.26-5.85,109.26-4.17,163.1,5.02,0-12.07,0-24.14,0-36.21-65.68-13.59-133.45-13.59-199.14-.01.57,16.89-2,75.04,3.19,90.16,10.68,50.35,47.78,96.19,96.39,118.94,59.8-28.43,102.06-90.15,99.55-154.78-11.97-1.83-23.99-3.32-36.04-4.49,1.74,43.65-20.75,85.2-55.26,110.87Z"/>
    <path d="M121.13,278.49c23.6-.86,47.24-.61,70.81.76.97-4.28.8-14.24.79-18.77-30.22-2.03-60.58-1.97-90.79.16-1.62,37.13,16.86,72.73,45.42,95.06,18.74-14.7,33.13-35.03,40.3-57.84-6.69-.45-34.16-1.04-40.3-.89,0,6.33,0,12.66,0,18.99,1.81-.01,9.85.02,11.48.05-3.38,5.2-7.23,10.09-11.48,14.6-13.57-14.25-22.84-32.55-26.22-52.13Z"/>
    <path d="M219.85,110.15c15.87-.39,27.01,17.49,19.86,31.53v.06s-10.52,23.15-10.52,23.15c-5.73-1.61-11.27-3.79-16.5-6.53-14.03-7.25-25.86-18.19-34.18-31.53h-.02c-4.65-7.46-8.27-15.71-10.48-24.31h-.02c-1.66-6.43-2.65-13.2-2.78-20.1t0-.03s-.02-.02,0-.03t0-.03c-.05-1.26-.05-2.53,0-3.79t0-.03s-.02-.02,0-.03t0-.03c0-.63.03-1.25.06-1.88,7.02-8.39,20.58-9.06,29.26-2.97h1.68c-14.43-22.34-34.21-53.05-47.47-73.6h-.03l-.24.38-.24-.38h-.03c-13.21,20.46-33.08,51.32-47.47,73.6h1.68c8.68-6.09,22.24-5.42,29.26,2.97.03.63.06,1.25.06,1.88t0,.03s.02.02,0,.03t0,.03c.05,1.26.05,2.53,0,3.79t0,.03s.02.02,0,.03t0,.03c-.14,6.91-1.12,13.67-2.78,20.1h-.02c-2.2,8.59-5.83,16.85-10.48,24.31h-.02c-8.33,13.34-20.15,24.28-34.18,31.53-5.23,2.74-10.77,4.92-16.5,6.53l-10.53-23.15v-.06c-7.14-14.04,4-31.92,19.87-31.53-20.98-7.43-56.07-19.83-77.11-27.28,11.9,28.89,35.88,78.79,48.52,107.53,39.71,2.8,79.6-18.23,99.96-51.55,20.36,33.32,60.25,54.35,99.96,51.55,12.63-28.73,36.62-78.65,48.52-107.53l-36.27,12.83c-4.95,1.75-35.2,12.45-40.84,14.44Z"/>
  </g>
  </defs>

  <g class="sprite" id="#000000" fill="#000000">
    <use x="0" y="0" xlink:href="#logo"/>
  </g>

  <g class="sprite" id="#ffffff" fill="#ffffff">
    <use x="0" y="0" xlink:href="#logo"/>
  </g>
  
  <g class="sprite" id="#F4C20E" fill="#F4C20E">
    <use x="0" y="0" xlink:href="#logo"/>
  </g>
  
  <g class="sprite" id="#1561E8" fill="#1561E8">
    <use x="0" y="0" xlink:href="#logo"/>
  </g>

  <g class="sprite" id="default" fill="#282828">
    <use x="0" y="0" xlink:href="#logo"/>
  </g>
</svg>