<svg version="1.1"
  xmlns="http://www.w3.org/2000/svg"
  xmlns:xlink="http://www.w3.org/1999/xlink" 
  viewBox="0 0 297 422">
<title>Gridiron Guesser</title>
  <defs>
    <style>
      <![CDATA[
        .sprite,
        .sprite:target ~ #default {
            display: none;
        }
        .sprite:target, #default {
            display: inline;
        }
      ]]>
    </style>

  <g id="logo" stroke="none">
    <path d="M156.77,372.93c-2.69,1.98-5.45,3.87-8.25,5.66-46.03-28.18-68.66-81.71-63.54-135.17,54.26-5.85,109.26-4.17,163.1,5.02,0-12.07,0-24.14,0-36.21-65.68-13.59-133.45-13.59-199.14-.01.57,16.89-2,75.04,3.19,90.16,10.68,50.35,47.78,96.19,96.39,118.94,59.8-28.43,102.06-90.15,99.55-154.78-11.97-1.83-23.99-3.32-36.04-4.49,1.74,43.65-20.75,85.2-55.26,110.87Z"/>
    <path d="M121.13,278.49c23.6-.86,47.24-.61,70.81.76.97-4.28.8-14.24.79-18.77-30.22-2.03-60.58-1.97-90.79.16-1.62,37.13,16.86,72.73,45.42,95.06,18.74-14.7,33.13-35.03,40.3-57.84-6.69-.45-34.16-1.04-40.3-.89,0,6.33,0,12.66,0,18.99,1.81-.01,9.85.02,11.48.05-3.38,5.2-7.23,10.09-11.48,14.6-13.57-14.25-22.84-32.55-26.22-52.13Z"/>
    <path d="M219.85,110.15c15.87-.39,27.01,17.49,19.86,31.53v.06s-10.52,23.15-10.52,23.15c-5.73-1.61-11.27-3.79-16.5-6.53-14.03-7.25-25.86-18.19-34.18-31.53h-.02c-4.65-7.46-8.27-15.71-10.48-24.31h-.02c-1.66-6.43-2.65-13.2-2.78-20.1t0-.03s-.02-.02,0-.03t0-.03c-.05-1.26-.05-2.53,0-3.79t0-.03s-.02-.02,0-.03t0-.03c0-.63.03-1.25.06-1.88,7.02-8.39,20.58-9.06,29.26-2.97h1.68c-14.43-22.34-34.21-53.05-47.47-73.6h-.03l-.24.38-.24-.38h-.03c-13.21,20.46-33.08,51.32-47.47,73.6h1.68c8.68-6.09,22.24-5.42,29.26,2.97.03.63.06,1.25.06,1.88t0,.03s.02.02,0,.03t0,.03c.05,1.26.05,2.53,0,3.79t0,.03s.02.02,0,.03t0,.03c-.14,6.91-1.12,13.67-2.78,20.1h-.02c-2.2,8.59-5.83,16.85-10.48,24.31h-.02c-8.33,13.34-20.15,24.28-34.18,31.53-5.23,2.74-10.77,4.92-16.5,6.53l-10.53-23.15v-.06c-7.14-14.04,4-31.92,19.87-31.53-20.98-7.43-56.07-19.83-77.11-27.28,11.9,28.89,35.88,78.79,48.52,107.53,39.71,2.8,79.6-18.23,99.96-51.55,20.36,33.32,60.25,54.35,99.96,51.55,12.63-28.73,36.62-78.65,48.52-107.53l-36.27,12.83c-4.95,1.75-35.2,12.45-40.84,14.44Z"/>
  </g>
  </defs>

  <g class="sprite" id="#000000" fill="#000000">
    <use x="0" y="0" xlink:href="#logo"/>
  </g>

  <g class="sprite" id="black" fill="#000000">
    <use x="0" y="0" xlink:href="#logo"/>
  </g>

  <g class="sprite" id="#ffffff" fill="#ffffff">
    <use x="0" y="0" xlink:href="#logo"/>
  </g>

  <g class="sprite" id="white" fill="#ffffff">
    <use x="0" y="0" xlink:href="#logo"/>
  </g>

  <g class="sprite" id="#F0F0F0" fill="#F0F0F0">
    <use x="0" y="0" xlink:href="#logo"/>
  </g>

  <g class="sprite" id="light" fill="#F0F0F0">
    <use x="0" y="0" xlink:href="#logo"/>
  </g>
  
  <g class="sprite" id="#F4C20E" fill="#F4C20E">
    <use x="0" y="0" xlink:href="#logo"/>
  </g>
  
  <g class="sprite" id="green" fill="#F4C20E">
    <use x="0" y="0" xlink:href="#logo"/>
  </g>
  
  <g class="sprite" id="#1561E8" fill="#1561E8">
    <use x="0" y="0" xlink:href="#logo"/>
  </g>
  
  <g class="sprite" id="blue" fill="#1561E8">
    <use x="0" y="0" xlink:href="#logo"/>
  </g>

  <g class="sprite" id="default" fill="#282828">
    <use x="0" y="0" xlink:href="#logo"/>
  </g>
</svg>