<?xml version="1.0" encoding="UTF-8"?>
<svg id="Layer_1" xmlns="http://www.w3.org/2000/svg" version="1.1" viewBox="0 0 22.3 22.3">
  <!-- Generator: Adobe Illustrator 29.2.1, SVG Export Plug-In . SVG Version: 2.1.0 Build 116)  -->
  <defs>
    <style>
      .st0 {
        fill: #fff;
      }
    </style>
  </defs>
  <path class="st0" d="M5.4,3.2h15.3c.9,0,1.6-.7,1.6-1.6s-.7-1.6-1.6-1.6H1.6c-.2,0-.4,0-.6.1,0,0,0,0,0,0C.6.3.3.6.1,1c0,0,0,0,0,0C0,1.2,0,1.4,0,1.6v19.1c0,.9.7,1.6,1.6,1.6s1.6-.7,1.6-1.6V5.4l16.4,16.4c.3.3.7.5,1.1.5s.8-.2,1.1-.5c.6-.6.6-1.6,0-2.2L5.4,3.2Z"/>
</svg>