<?xml version="1.0" encoding="UTF-8"?>
<svg id="Layer_1" xmlns="http://www.w3.org/2000/svg" version="1.1" viewBox="0 0 22.3 22.3">
  <!-- Generator: Adobe Illustrator 29.2.1, SVG Export Plug-In . SVG Version: 2.1.0 Build 116)  -->
  <defs>
    <style>
      .st0 {
        fill: #243a92;
      }
    </style>
  </defs>
  <path class="st0" d="M3.2,16.9V1.6c0-.9-.7-1.6-1.6-1.6S0,.7,0,1.6v19.1c0,.2,0,.4.1.6H.1c.2.4.5.7.9.9h0c.2.1.4.1.6.1h19.1c.9,0,1.6-.7,1.6-1.6s-.7-1.6-1.6-1.6H5.4L21.8,2.7c.3-.3.5-.7.5-1.1s-.2-.8-.5-1.1c-.6-.6-1.6-.6-2.2,0L3.2,16.9Z"/>
</svg>